<svg xmlns="http://www.w3.org/2000/svg" class="dg" viewBox="0 0 800 570" role="img" aria-labelledby="dg03-t dg03-d" font-family="Inter, Helvetica Neue, Arial, sans-serif">
<title id="dg03-t">Repräsentationsfehler: Presse und digitalisiertes Archiv</title>
<desc id="dg03-d">Links 25 Zeitungen: bürgerliche und urbane Presse, Arbeiterzeitungen sowie Blätter marginalisierter Gruppen und nicht-deutschsprachige Blätter. Rechts nach der Digitalisierung: fast nur die bürgerliche, urbane Presse ist vorhanden, die anderen Plätze sind leer.</desc>
<text x="0" y="36" font-size="26" font-weight="700" fill="#000000" text-anchor="start">Erschienene Presse</text>
<rect x="0" y="64" width="46" height="58" rx="5" fill="#3F6FB0"/><line x1="8" y1="78" x2="29.0" y2="78" stroke="#FFFFFF" stroke-width="3" stroke-linecap="round"/><line x1="8" y1="89" x2="24.5" y2="89" stroke="#FFFFFF" stroke-width="3" stroke-linecap="round"/><line x1="8" y1="100" x2="29.0" y2="100" stroke="#FFFFFF" stroke-width="3" stroke-linecap="round"/><line x1="8" y1="111" x2="21.5" y2="111" stroke="#FFFFFF" stroke-width="3" stroke-linecap="round"/>
<rect x="60" y="64" width="46" height="58" rx="5" fill="#B58A3A"/><line x1="68" y1="78" x2="89.0" y2="78" stroke="#FFFFFF" stroke-width="3" stroke-linecap="round"/><line x1="68" y1="89" x2="84.5" y2="89" stroke="#FFFFFF" stroke-width="3" stroke-linecap="round"/><line x1="68" y1="100" x2="89.0" y2="100" stroke="#FFFFFF" stroke-width="3" stroke-linecap="round"/><line x1="68" y1="111" x2="81.5" y2="111" stroke="#FFFFFF" stroke-width="3" stroke-linecap="round"/>
<rect x="120" y="64" width="46" height="58" rx="5" fill="#3F6FB0"/><line x1="128" y1="78" x2="149.0" y2="78" stroke="#FFFFFF" stroke-width="3" stroke-linecap="round"/><line x1="128" y1="89" x2="144.5" y2="89" stroke="#FFFFFF" stroke-width="3" stroke-linecap="round"/><line x1="128" y1="100" x2="149.0" y2="100" stroke="#FFFFFF" stroke-width="3" stroke-linecap="round"/><line x1="128" y1="111" x2="141.5" y2="111" stroke="#FFFFFF" stroke-width="3" stroke-linecap="round"/>
<rect x="180" y="64" width="46" height="58" rx="5" fill="#C1557B"/><line x1="188" y1="78" x2="209.0" y2="78" stroke="#FFFFFF" stroke-width="3" stroke-linecap="round"/><line x1="188" y1="89" x2="204.5" y2="89" stroke="#FFFFFF" stroke-width="3" stroke-linecap="round"/><line x1="188" y1="100" x2="209.0" y2="100" stroke="#FFFFFF" stroke-width="3" stroke-linecap="round"/><line x1="188" y1="111" x2="201.5" y2="111" stroke="#FFFFFF" stroke-width="3" stroke-linecap="round"/>
<rect x="240" y="64" width="46" height="58" rx="5" fill="#3F6FB0"/><line x1="248" y1="78" x2="269.0" y2="78" stroke="#FFFFFF" stroke-width="3" stroke-linecap="round"/><line x1="248" y1="89" x2="264.5" y2="89" stroke="#FFFFFF" stroke-width="3" stroke-linecap="round"/><line x1="248" y1="100" x2="269.0" y2="100" stroke="#FFFFFF" stroke-width="3" stroke-linecap="round"/><line x1="248" y1="111" x2="261.5" y2="111" stroke="#FFFFFF" stroke-width="3" stroke-linecap="round"/>
<rect x="0" y="136" width="46" height="58" rx="5" fill="#B58A3A"/><line x1="8" y1="150" x2="29.0" y2="150" stroke="#FFFFFF" stroke-width="3" stroke-linecap="round"/><line x1="8" y1="161" x2="24.5" y2="161" stroke="#FFFFFF" stroke-width="3" stroke-linecap="round"/><line x1="8" y1="172" x2="29.0" y2="172" stroke="#FFFFFF" stroke-width="3" stroke-linecap="round"/><line x1="8" y1="183" x2="21.5" y2="183" stroke="#FFFFFF" stroke-width="3" stroke-linecap="round"/>
<rect x="60" y="136" width="46" height="58" rx="5" fill="#3F6FB0"/><line x1="68" y1="150" x2="89.0" y2="150" stroke="#FFFFFF" stroke-width="3" stroke-linecap="round"/><line x1="68" y1="161" x2="84.5" y2="161" stroke="#FFFFFF" stroke-width="3" stroke-linecap="round"/><line x1="68" y1="172" x2="89.0" y2="172" stroke="#FFFFFF" stroke-width="3" stroke-linecap="round"/><line x1="68" y1="183" x2="81.5" y2="183" stroke="#FFFFFF" stroke-width="3" stroke-linecap="round"/>
<rect x="120" y="136" width="46" height="58" rx="5" fill="#C1557B"/><line x1="128" y1="150" x2="149.0" y2="150" stroke="#FFFFFF" stroke-width="3" stroke-linecap="round"/><line x1="128" y1="161" x2="144.5" y2="161" stroke="#FFFFFF" stroke-width="3" stroke-linecap="round"/><line x1="128" y1="172" x2="149.0" y2="172" stroke="#FFFFFF" stroke-width="3" stroke-linecap="round"/><line x1="128" y1="183" x2="141.5" y2="183" stroke="#FFFFFF" stroke-width="3" stroke-linecap="round"/>
<rect x="180" y="136" width="46" height="58" rx="5" fill="#B58A3A"/><line x1="188" y1="150" x2="209.0" y2="150" stroke="#FFFFFF" stroke-width="3" stroke-linecap="round"/><line x1="188" y1="161" x2="204.5" y2="161" stroke="#FFFFFF" stroke-width="3" stroke-linecap="round"/><line x1="188" y1="172" x2="209.0" y2="172" stroke="#FFFFFF" stroke-width="3" stroke-linecap="round"/><line x1="188" y1="183" x2="201.5" y2="183" stroke="#FFFFFF" stroke-width="3" stroke-linecap="round"/>
<rect x="240" y="136" width="46" height="58" rx="5" fill="#3F6FB0"/><line x1="248" y1="150" x2="269.0" y2="150" stroke="#FFFFFF" stroke-width="3" stroke-linecap="round"/><line x1="248" y1="161" x2="264.5" y2="161" stroke="#FFFFFF" stroke-width="3" stroke-linecap="round"/><line x1="248" y1="172" x2="269.0" y2="172" stroke="#FFFFFF" stroke-width="3" stroke-linecap="round"/><line x1="248" y1="183" x2="261.5" y2="183" stroke="#FFFFFF" stroke-width="3" stroke-linecap="round"/>
<rect x="0" y="208" width="46" height="58" rx="5" fill="#3F6FB0"/><line x1="8" y1="222" x2="29.0" y2="222" stroke="#FFFFFF" stroke-width="3" stroke-linecap="round"/><line x1="8" y1="233" x2="24.5" y2="233" stroke="#FFFFFF" stroke-width="3" stroke-linecap="round"/><line x1="8" y1="244" x2="29.0" y2="244" stroke="#FFFFFF" stroke-width="3" stroke-linecap="round"/><line x1="8" y1="255" x2="21.5" y2="255" stroke="#FFFFFF" stroke-width="3" stroke-linecap="round"/>
<rect x="60" y="208" width="46" height="58" rx="5" fill="#C1557B"/><line x1="68" y1="222" x2="89.0" y2="222" stroke="#FFFFFF" stroke-width="3" stroke-linecap="round"/><line x1="68" y1="233" x2="84.5" y2="233" stroke="#FFFFFF" stroke-width="3" stroke-linecap="round"/><line x1="68" y1="244" x2="89.0" y2="244" stroke="#FFFFFF" stroke-width="3" stroke-linecap="round"/><line x1="68" y1="255" x2="81.5" y2="255" stroke="#FFFFFF" stroke-width="3" stroke-linecap="round"/>
<rect x="120" y="208" width="46" height="58" rx="5" fill="#3F6FB0"/><line x1="128" y1="222" x2="149.0" y2="222" stroke="#FFFFFF" stroke-width="3" stroke-linecap="round"/><line x1="128" y1="233" x2="144.5" y2="233" stroke="#FFFFFF" stroke-width="3" stroke-linecap="round"/><line x1="128" y1="244" x2="149.0" y2="244" stroke="#FFFFFF" stroke-width="3" stroke-linecap="round"/><line x1="128" y1="255" x2="141.5" y2="255" stroke="#FFFFFF" stroke-width="3" stroke-linecap="round"/>
<rect x="180" y="208" width="46" height="58" rx="5" fill="#B58A3A"/><line x1="188" y1="222" x2="209.0" y2="222" stroke="#FFFFFF" stroke-width="3" stroke-linecap="round"/><line x1="188" y1="233" x2="204.5" y2="233" stroke="#FFFFFF" stroke-width="3" stroke-linecap="round"/><line x1="188" y1="244" x2="209.0" y2="244" stroke="#FFFFFF" stroke-width="3" stroke-linecap="round"/><line x1="188" y1="255" x2="201.5" y2="255" stroke="#FFFFFF" stroke-width="3" stroke-linecap="round"/>
<rect x="240" y="208" width="46" height="58" rx="5" fill="#B58A3A"/><line x1="248" y1="222" x2="269.0" y2="222" stroke="#FFFFFF" stroke-width="3" stroke-linecap="round"/><line x1="248" y1="233" x2="264.5" y2="233" stroke="#FFFFFF" stroke-width="3" stroke-linecap="round"/><line x1="248" y1="244" x2="269.0" y2="244" stroke="#FFFFFF" stroke-width="3" stroke-linecap="round"/><line x1="248" y1="255" x2="261.5" y2="255" stroke="#FFFFFF" stroke-width="3" stroke-linecap="round"/>
<rect x="0" y="280" width="46" height="58" rx="5" fill="#C1557B"/><line x1="8" y1="294" x2="29.0" y2="294" stroke="#FFFFFF" stroke-width="3" stroke-linecap="round"/><line x1="8" y1="305" x2="24.5" y2="305" stroke="#FFFFFF" stroke-width="3" stroke-linecap="round"/><line x1="8" y1="316" x2="29.0" y2="316" stroke="#FFFFFF" stroke-width="3" stroke-linecap="round"/><line x1="8" y1="327" x2="21.5" y2="327" stroke="#FFFFFF" stroke-width="3" stroke-linecap="round"/>
<rect x="60" y="280" width="46" height="58" rx="5" fill="#B58A3A"/><line x1="68" y1="294" x2="89.0" y2="294" stroke="#FFFFFF" stroke-width="3" stroke-linecap="round"/><line x1="68" y1="305" x2="84.5" y2="305" stroke="#FFFFFF" stroke-width="3" stroke-linecap="round"/><line x1="68" y1="316" x2="89.0" y2="316" stroke="#FFFFFF" stroke-width="3" stroke-linecap="round"/><line x1="68" y1="327" x2="81.5" y2="327" stroke="#FFFFFF" stroke-width="3" stroke-linecap="round"/>
<rect x="120" y="280" width="46" height="58" rx="5" fill="#3F6FB0"/><line x1="128" y1="294" x2="149.0" y2="294" stroke="#FFFFFF" stroke-width="3" stroke-linecap="round"/><line x1="128" y1="305" x2="144.5" y2="305" stroke="#FFFFFF" stroke-width="3" stroke-linecap="round"/><line x1="128" y1="316" x2="149.0" y2="316" stroke="#FFFFFF" stroke-width="3" stroke-linecap="round"/><line x1="128" y1="327" x2="141.5" y2="327" stroke="#FFFFFF" stroke-width="3" stroke-linecap="round"/>
<rect x="180" y="280" width="46" height="58" rx="5" fill="#3F6FB0"/><line x1="188" y1="294" x2="209.0" y2="294" stroke="#FFFFFF" stroke-width="3" stroke-linecap="round"/><line x1="188" y1="305" x2="204.5" y2="305" stroke="#FFFFFF" stroke-width="3" stroke-linecap="round"/><line x1="188" y1="316" x2="209.0" y2="316" stroke="#FFFFFF" stroke-width="3" stroke-linecap="round"/><line x1="188" y1="327" x2="201.5" y2="327" stroke="#FFFFFF" stroke-width="3" stroke-linecap="round"/>
<rect x="240" y="280" width="46" height="58" rx="5" fill="#C1557B"/><line x1="248" y1="294" x2="269.0" y2="294" stroke="#FFFFFF" stroke-width="3" stroke-linecap="round"/><line x1="248" y1="305" x2="264.5" y2="305" stroke="#FFFFFF" stroke-width="3" stroke-linecap="round"/><line x1="248" y1="316" x2="269.0" y2="316" stroke="#FFFFFF" stroke-width="3" stroke-linecap="round"/><line x1="248" y1="327" x2="261.5" y2="327" stroke="#FFFFFF" stroke-width="3" stroke-linecap="round"/>
<rect x="0" y="352" width="46" height="58" rx="5" fill="#B58A3A"/><line x1="8" y1="366" x2="29.0" y2="366" stroke="#FFFFFF" stroke-width="3" stroke-linecap="round"/><line x1="8" y1="377" x2="24.5" y2="377" stroke="#FFFFFF" stroke-width="3" stroke-linecap="round"/><line x1="8" y1="388" x2="29.0" y2="388" stroke="#FFFFFF" stroke-width="3" stroke-linecap="round"/><line x1="8" y1="399" x2="21.5" y2="399" stroke="#FFFFFF" stroke-width="3" stroke-linecap="round"/>
<rect x="60" y="352" width="46" height="58" rx="5" fill="#3F6FB0"/><line x1="68" y1="366" x2="89.0" y2="366" stroke="#FFFFFF" stroke-width="3" stroke-linecap="round"/><line x1="68" y1="377" x2="84.5" y2="377" stroke="#FFFFFF" stroke-width="3" stroke-linecap="round"/><line x1="68" y1="388" x2="89.0" y2="388" stroke="#FFFFFF" stroke-width="3" stroke-linecap="round"/><line x1="68" y1="399" x2="81.5" y2="399" stroke="#FFFFFF" stroke-width="3" stroke-linecap="round"/>
<rect x="120" y="352" width="46" height="58" rx="5" fill="#B58A3A"/><line x1="128" y1="366" x2="149.0" y2="366" stroke="#FFFFFF" stroke-width="3" stroke-linecap="round"/><line x1="128" y1="377" x2="144.5" y2="377" stroke="#FFFFFF" stroke-width="3" stroke-linecap="round"/><line x1="128" y1="388" x2="149.0" y2="388" stroke="#FFFFFF" stroke-width="3" stroke-linecap="round"/><line x1="128" y1="399" x2="141.5" y2="399" stroke="#FFFFFF" stroke-width="3" stroke-linecap="round"/>
<rect x="180" y="352" width="46" height="58" rx="5" fill="#C1557B"/><line x1="188" y1="366" x2="209.0" y2="366" stroke="#FFFFFF" stroke-width="3" stroke-linecap="round"/><line x1="188" y1="377" x2="204.5" y2="377" stroke="#FFFFFF" stroke-width="3" stroke-linecap="round"/><line x1="188" y1="388" x2="209.0" y2="388" stroke="#FFFFFF" stroke-width="3" stroke-linecap="round"/><line x1="188" y1="399" x2="201.5" y2="399" stroke="#FFFFFF" stroke-width="3" stroke-linecap="round"/>
<rect x="240" y="352" width="46" height="58" rx="5" fill="#3F6FB0"/><line x1="248" y1="366" x2="269.0" y2="366" stroke="#FFFFFF" stroke-width="3" stroke-linecap="round"/><line x1="248" y1="377" x2="264.5" y2="377" stroke="#FFFFFF" stroke-width="3" stroke-linecap="round"/><line x1="248" y1="388" x2="269.0" y2="388" stroke="#FFFFFF" stroke-width="3" stroke-linecap="round"/><line x1="248" y1="399" x2="261.5" y2="399" stroke="#FFFFFF" stroke-width="3" stroke-linecap="round"/>
<text x="500" y="36" font-size="26" font-weight="700" fill="#000000" text-anchor="start">Digitalisiertes Archiv</text>
<rect x="500" y="64" width="46" height="58" rx="5" fill="#3F6FB0"/><line x1="508" y1="78" x2="529.0" y2="78" stroke="#FFFFFF" stroke-width="3" stroke-linecap="round"/><line x1="508" y1="89" x2="524.5" y2="89" stroke="#FFFFFF" stroke-width="3" stroke-linecap="round"/><line x1="508" y1="100" x2="529.0" y2="100" stroke="#FFFFFF" stroke-width="3" stroke-linecap="round"/><line x1="508" y1="111" x2="521.5" y2="111" stroke="#FFFFFF" stroke-width="3" stroke-linecap="round"/>
<rect x="560" y="64" width="46" height="58" rx="5" fill="none" stroke="#C9D0D6" stroke-width="2" stroke-dasharray="5 5"/>
<rect x="620" y="64" width="46" height="58" rx="5" fill="#3F6FB0"/><line x1="628" y1="78" x2="649.0" y2="78" stroke="#FFFFFF" stroke-width="3" stroke-linecap="round"/><line x1="628" y1="89" x2="644.5" y2="89" stroke="#FFFFFF" stroke-width="3" stroke-linecap="round"/><line x1="628" y1="100" x2="649.0" y2="100" stroke="#FFFFFF" stroke-width="3" stroke-linecap="round"/><line x1="628" y1="111" x2="641.5" y2="111" stroke="#FFFFFF" stroke-width="3" stroke-linecap="round"/>
<rect x="680" y="64" width="46" height="58" rx="5" fill="none" stroke="#C9D0D6" stroke-width="2" stroke-dasharray="5 5"/>
<rect x="740" y="64" width="46" height="58" rx="5" fill="#3F6FB0"/><line x1="748" y1="78" x2="769.0" y2="78" stroke="#FFFFFF" stroke-width="3" stroke-linecap="round"/><line x1="748" y1="89" x2="764.5" y2="89" stroke="#FFFFFF" stroke-width="3" stroke-linecap="round"/><line x1="748" y1="100" x2="769.0" y2="100" stroke="#FFFFFF" stroke-width="3" stroke-linecap="round"/><line x1="748" y1="111" x2="761.5" y2="111" stroke="#FFFFFF" stroke-width="3" stroke-linecap="round"/>
<rect x="500" y="136" width="46" height="58" rx="5" fill="none" stroke="#C9D0D6" stroke-width="2" stroke-dasharray="5 5"/>
<rect x="560" y="136" width="46" height="58" rx="5" fill="#3F6FB0"/><line x1="568" y1="150" x2="589.0" y2="150" stroke="#FFFFFF" stroke-width="3" stroke-linecap="round"/><line x1="568" y1="161" x2="584.5" y2="161" stroke="#FFFFFF" stroke-width="3" stroke-linecap="round"/><line x1="568" y1="172" x2="589.0" y2="172" stroke="#FFFFFF" stroke-width="3" stroke-linecap="round"/><line x1="568" y1="183" x2="581.5" y2="183" stroke="#FFFFFF" stroke-width="3" stroke-linecap="round"/>
<rect x="620" y="136" width="46" height="58" rx="5" fill="none" stroke="#C9D0D6" stroke-width="2" stroke-dasharray="5 5"/>
<rect x="680" y="136" width="46" height="58" rx="5" fill="none" stroke="#C9D0D6" stroke-width="2" stroke-dasharray="5 5"/>
<rect x="740" y="136" width="46" height="58" rx="5" fill="#3F6FB0"/><line x1="748" y1="150" x2="769.0" y2="150" stroke="#FFFFFF" stroke-width="3" stroke-linecap="round"/><line x1="748" y1="161" x2="764.5" y2="161" stroke="#FFFFFF" stroke-width="3" stroke-linecap="round"/><line x1="748" y1="172" x2="769.0" y2="172" stroke="#FFFFFF" stroke-width="3" stroke-linecap="round"/><line x1="748" y1="183" x2="761.5" y2="183" stroke="#FFFFFF" stroke-width="3" stroke-linecap="round"/>
<rect x="500" y="208" width="46" height="58" rx="5" fill="#3F6FB0"/><line x1="508" y1="222" x2="529.0" y2="222" stroke="#FFFFFF" stroke-width="3" stroke-linecap="round"/><line x1="508" y1="233" x2="524.5" y2="233" stroke="#FFFFFF" stroke-width="3" stroke-linecap="round"/><line x1="508" y1="244" x2="529.0" y2="244" stroke="#FFFFFF" stroke-width="3" stroke-linecap="round"/><line x1="508" y1="255" x2="521.5" y2="255" stroke="#FFFFFF" stroke-width="3" stroke-linecap="round"/>
<rect x="560" y="208" width="46" height="58" rx="5" fill="none" stroke="#C9D0D6" stroke-width="2" stroke-dasharray="5 5"/>
<rect x="620" y="208" width="46" height="58" rx="5" fill="#3F6FB0"/><line x1="628" y1="222" x2="649.0" y2="222" stroke="#FFFFFF" stroke-width="3" stroke-linecap="round"/><line x1="628" y1="233" x2="644.5" y2="233" stroke="#FFFFFF" stroke-width="3" stroke-linecap="round"/><line x1="628" y1="244" x2="649.0" y2="244" stroke="#FFFFFF" stroke-width="3" stroke-linecap="round"/><line x1="628" y1="255" x2="641.5" y2="255" stroke="#FFFFFF" stroke-width="3" stroke-linecap="round"/>
<rect x="680" y="208" width="46" height="58" rx="5" fill="none" stroke="#C9D0D6" stroke-width="2" stroke-dasharray="5 5"/>
<rect x="740" y="208" width="46" height="58" rx="5" fill="none" stroke="#C9D0D6" stroke-width="2" stroke-dasharray="5 5"/>
<rect x="500" y="280" width="46" height="58" rx="5" fill="none" stroke="#C9D0D6" stroke-width="2" stroke-dasharray="5 5"/>
<rect x="560" y="280" width="46" height="58" rx="5" fill="none" stroke="#C9D0D6" stroke-width="2" stroke-dasharray="5 5"/>
<rect x="620" y="280" width="46" height="58" rx="5" fill="#3F6FB0"/><line x1="628" y1="294" x2="649.0" y2="294" stroke="#FFFFFF" stroke-width="3" stroke-linecap="round"/><line x1="628" y1="305" x2="644.5" y2="305" stroke="#FFFFFF" stroke-width="3" stroke-linecap="round"/><line x1="628" y1="316" x2="649.0" y2="316" stroke="#FFFFFF" stroke-width="3" stroke-linecap="round"/><line x1="628" y1="327" x2="641.5" y2="327" stroke="#FFFFFF" stroke-width="3" stroke-linecap="round"/>
<rect x="680" y="280" width="46" height="58" rx="5" fill="#3F6FB0"/><line x1="688" y1="294" x2="709.0" y2="294" stroke="#FFFFFF" stroke-width="3" stroke-linecap="round"/><line x1="688" y1="305" x2="704.5" y2="305" stroke="#FFFFFF" stroke-width="3" stroke-linecap="round"/><line x1="688" y1="316" x2="709.0" y2="316" stroke="#FFFFFF" stroke-width="3" stroke-linecap="round"/><line x1="688" y1="327" x2="701.5" y2="327" stroke="#FFFFFF" stroke-width="3" stroke-linecap="round"/>
<rect x="740" y="280" width="46" height="58" rx="5" fill="none" stroke="#C9D0D6" stroke-width="2" stroke-dasharray="5 5"/>
<rect x="500" y="352" width="46" height="58" rx="5" fill="none" stroke="#C9D0D6" stroke-width="2" stroke-dasharray="5 5"/>
<rect x="560" y="352" width="46" height="58" rx="5" fill="#3F6FB0"/><line x1="568" y1="366" x2="589.0" y2="366" stroke="#FFFFFF" stroke-width="3" stroke-linecap="round"/><line x1="568" y1="377" x2="584.5" y2="377" stroke="#FFFFFF" stroke-width="3" stroke-linecap="round"/><line x1="568" y1="388" x2="589.0" y2="388" stroke="#FFFFFF" stroke-width="3" stroke-linecap="round"/><line x1="568" y1="399" x2="581.5" y2="399" stroke="#FFFFFF" stroke-width="3" stroke-linecap="round"/>
<rect x="620" y="352" width="46" height="58" rx="5" fill="none" stroke="#C9D0D6" stroke-width="2" stroke-dasharray="5 5"/>
<rect x="680" y="352" width="46" height="58" rx="5" fill="none" stroke="#C9D0D6" stroke-width="2" stroke-dasharray="5 5"/>
<rect x="740" y="352" width="46" height="58" rx="5" fill="#3F6FB0"/><line x1="748" y1="366" x2="769.0" y2="366" stroke="#FFFFFF" stroke-width="3" stroke-linecap="round"/><line x1="748" y1="377" x2="764.5" y2="377" stroke="#FFFFFF" stroke-width="3" stroke-linecap="round"/><line x1="748" y1="388" x2="769.0" y2="388" stroke="#FFFFFF" stroke-width="3" stroke-linecap="round"/><line x1="748" y1="399" x2="761.5" y2="399" stroke="#FFFFFF" stroke-width="3" stroke-linecap="round"/>
<line x1="318" y1="232" x2="466.8" y2="232.0" stroke="#24303A" stroke-width="3" stroke-linecap="round"/><polygon points="478.0,232.0 465.9,239.0 465.9,225.0" fill="#24303A"/>
<text x="398" y="214" font-size="20" font-weight="600" fill="#24303A" text-anchor="middle">Digitalisierung</text>
<rect x="0" y="452" width="18" height="22" rx="3" fill="#3F6FB0"/><text x="30" y="470" font-size="20" font-weight="400" fill="#24303A" text-anchor="start">bürgerliche, urbane Presse</text>
<rect x="0" y="492" width="18" height="22" rx="3" fill="#B58A3A"/><text x="30" y="510" font-size="20" font-weight="400" fill="#24303A" text-anchor="start">Arbeiterzeitungen</text>
<rect x="0" y="532" width="18" height="22" rx="3" fill="#C1557B"/><text x="30" y="550" font-size="20" font-weight="400" fill="#24303A" text-anchor="start">marginalisierte Gruppen, nicht-deutschsprachig</text>
<rect x="560" y="452" width="18" height="22" rx="3" fill="none" stroke="#C9D0D6" stroke-width="2" stroke-dasharray="4 4"/><text x="590" y="470" font-size="20" font-weight="400" fill="#24303A" text-anchor="start">fehlt im Archiv</text>
</svg>
