<svg xmlns="http://www.w3.org/2000/svg" class="dg" viewBox="0 0 800 560" role="img" aria-labelledby="dg11-t dg11-d" font-family="Inter, Helvetica Neue, Arial, sans-serif">
<title id="dg11-t">Darstellungsfehler: farbig hervorgehobene Treffer im Archivkatalog</title>
<desc id="dg11-d">Fünf Treffer in einem Archivkatalog. Die drei frei zugänglichen sind farbig hervorgehoben und erhalten 92, 78 und 70 Klicks. Die zwei eingeschränkten sind grau und erhalten 14 und 9 Klicks (schematisch).</desc>
<text x="0" y="36" font-size="22" font-weight="700" fill="#000000" text-anchor="start">Archivkatalog: Suchergebnisse</text>
<text x="580" y="36" font-size="22" font-weight="700" fill="#000000" text-anchor="start">Klicks</text>
<rect x="0" y="64" width="540" height="70" rx="10" fill="#F6EFE2"/>
<rect x="16" y="74" width="38" height="50" rx="5" fill="#24303A"/><line x1="24" y1="88" x2="39.4" y2="88" stroke="#FFFFFF" stroke-width="3" stroke-linecap="round"/><line x1="24" y1="99" x2="36.1" y2="99" stroke="#FFFFFF" stroke-width="3" stroke-linecap="round"/><line x1="24" y1="110" x2="39.4" y2="110" stroke="#FFFFFF" stroke-width="3" stroke-linecap="round"/><line x1="24" y1="121" x2="33.9" y2="121" stroke="#FFFFFF" stroke-width="3" stroke-linecap="round"/>
<text x="72" y="96" font-size="21" font-weight="600" fill="#24303A" text-anchor="start">Ratsprotokolle 1850–1900</text>
<text x="72" y="122" font-size="17" font-weight="600" fill="#8A6422" text-anchor="start">frei zugänglich</text>
<path d="M580,79 L760.0,79 Q764.0,79 764.0,83 L764.0,115 Q764.0,119 760.0,119 L580,119 Z" fill="#B58A3A"/>
<text x="774.0" y="108" font-size="20" font-weight="600" fill="#24303A" text-anchor="start">92</text>
<rect x="0" y="148" width="540" height="70" rx="10" fill="#EEF1F4"/>
<rect x="16" y="158" width="38" height="50" rx="5" fill="#9AA5AF"/><line x1="24" y1="172" x2="39.4" y2="172" stroke="#FFFFFF" stroke-width="3" stroke-linecap="round"/><line x1="24" y1="183" x2="36.1" y2="183" stroke="#FFFFFF" stroke-width="3" stroke-linecap="round"/><line x1="24" y1="194" x2="39.4" y2="194" stroke="#FFFFFF" stroke-width="3" stroke-linecap="round"/><line x1="24" y1="205" x2="33.9" y2="205" stroke="#FFFFFF" stroke-width="3" stroke-linecap="round"/>
<text x="72" y="180" font-size="21" font-weight="400" fill="#5F6B76" text-anchor="start">Nachlass F. Muster</text>
<g><path d="M73,196 v-6 a7,7 0 0 1 14,0 v6" fill="none" stroke="#9AA5AF" stroke-width="3"/><rect x="70" y="195" width="20" height="16" rx="3" fill="#9AA5AF"/></g>
<text x="98" y="206" font-size="17" font-weight="400" fill="#5F6B76" text-anchor="start">eingeschränkt</text>
<path d="M580,163 L604.0,163 Q608.0,163 608.0,167 L608.0,199 Q608.0,203 604.0,203 L580,203 Z" fill="#9AA5AF"/>
<text x="618.0" y="192" font-size="20" font-weight="600" fill="#24303A" text-anchor="start">14</text>
<rect x="0" y="232" width="540" height="70" rx="10" fill="#F6EFE2"/>
<rect x="16" y="242" width="38" height="50" rx="5" fill="#24303A"/><line x1="24" y1="256" x2="39.4" y2="256" stroke="#FFFFFF" stroke-width="3" stroke-linecap="round"/><line x1="24" y1="267" x2="36.1" y2="267" stroke="#FFFFFF" stroke-width="3" stroke-linecap="round"/><line x1="24" y1="278" x2="39.4" y2="278" stroke="#FFFFFF" stroke-width="3" stroke-linecap="round"/><line x1="24" y1="289" x2="33.9" y2="289" stroke="#FFFFFF" stroke-width="3" stroke-linecap="round"/>
<text x="72" y="264" font-size="21" font-weight="600" fill="#24303A" text-anchor="start">Fotosammlung Hafen</text>
<text x="72" y="290" font-size="17" font-weight="600" fill="#8A6422" text-anchor="start">frei zugänglich</text>
<path d="M580,247 L732.0,247 Q736.0,247 736.0,251 L736.0,283 Q736.0,287 732.0,287 L580,287 Z" fill="#B58A3A"/>
<text x="746.0" y="276" font-size="20" font-weight="600" fill="#24303A" text-anchor="start">78</text>
<rect x="0" y="316" width="540" height="70" rx="10" fill="#EEF1F4"/>
<rect x="16" y="326" width="38" height="50" rx="5" fill="#9AA5AF"/><line x1="24" y1="340" x2="39.4" y2="340" stroke="#FFFFFF" stroke-width="3" stroke-linecap="round"/><line x1="24" y1="351" x2="36.1" y2="351" stroke="#FFFFFF" stroke-width="3" stroke-linecap="round"/><line x1="24" y1="362" x2="39.4" y2="362" stroke="#FFFFFF" stroke-width="3" stroke-linecap="round"/><line x1="24" y1="373" x2="33.9" y2="373" stroke="#FFFFFF" stroke-width="3" stroke-linecap="round"/>
<text x="72" y="348" font-size="21" font-weight="400" fill="#5F6B76" text-anchor="start">Vormundschaftsakten</text>
<g><path d="M73,364 v-6 a7,7 0 0 1 14,0 v6" fill="none" stroke="#9AA5AF" stroke-width="3"/><rect x="70" y="363" width="20" height="16" rx="3" fill="#9AA5AF"/></g>
<text x="98" y="374" font-size="17" font-weight="400" fill="#5F6B76" text-anchor="start">eingeschränkt</text>
<path d="M580,331 L594.0,331 Q598.0,331 598.0,335 L598.0,367 Q598.0,371 594.0,371 L580,371 Z" fill="#9AA5AF"/>
<text x="608.0" y="360" font-size="20" font-weight="600" fill="#24303A" text-anchor="start">9</text>
<rect x="0" y="400" width="540" height="70" rx="10" fill="#F6EFE2"/>
<rect x="16" y="410" width="38" height="50" rx="5" fill="#24303A"/><line x1="24" y1="424" x2="39.4" y2="424" stroke="#FFFFFF" stroke-width="3" stroke-linecap="round"/><line x1="24" y1="435" x2="36.1" y2="435" stroke="#FFFFFF" stroke-width="3" stroke-linecap="round"/><line x1="24" y1="446" x2="39.4" y2="446" stroke="#FFFFFF" stroke-width="3" stroke-linecap="round"/><line x1="24" y1="457" x2="33.9" y2="457" stroke="#FFFFFF" stroke-width="3" stroke-linecap="round"/>
<text x="72" y="432" font-size="21" font-weight="600" fill="#24303A" text-anchor="start">Zeitungsausschnitte</text>
<text x="72" y="458" font-size="17" font-weight="600" fill="#8A6422" text-anchor="start">frei zugänglich</text>
<path d="M580,415 L716.0,415 Q720.0,415 720.0,419 L720.0,451 Q720.0,455 716.0,455 L580,455 Z" fill="#B58A3A"/>
<text x="730.0" y="444" font-size="20" font-weight="600" fill="#24303A" text-anchor="start">70</text>
<line x1="580" y1="56" x2="580" y2="486" stroke="#9AA5AF" stroke-width="2" stroke-linecap="round"/>
<text x="0" y="540" font-size="24" font-weight="400" text-anchor="start"><tspan fill="#8A6422" font-weight="700">Hervorhebung</tspan><tspan fill="#24303A" font-weight="400"> lenkt Klicks – vor jeder Prüfung des Inhalts</tspan></text>
</svg>
